<svg aria-hidden="true" style="position: absolute; width: 0; height: 0; overflow: hidden;" version="1.1" xmlns="http://www.w3.org/2000/svg" xmlns:xlink="http://www.w3.org/1999/xlink">
<defs>
<symbol id="icon-letter-svgrepo-com" viewBox="0 0 32 32">
<path fill="#1c274c" style="fill: var(--color1, #1c274c)" d="M13.258 4.333h5.484c2.45-0 4.391-0 5.91 0.204 1.563 0.21 2.829 0.653 3.826 1.651s1.441 2.263 1.651 3.826c0.204 1.519 0.204 3.46 0.204 5.91v0.15c0 2.45 0 4.391-0.204 5.91-0.21 1.563-0.653 2.829-1.651 3.826s-2.263 1.441-3.826 1.651c-1.519 0.204-3.46 0.204-5.91 0.204h-5.484c-2.45 0-4.391 0-5.91-0.204-1.563-0.21-2.829-0.653-3.826-1.651s-1.441-2.263-1.651-3.826c-0.204-1.519-0.204-3.46-0.204-5.91v-0.15c-0-2.45-0-4.391 0.204-5.91 0.21-1.563 0.653-2.829 1.651-3.826s2.263-1.441 3.826-1.651c1.519-0.204 3.46-0.204 5.91-0.204zM7.614 6.52c-1.341 0.18-2.114 0.519-2.679 1.083s-0.902 1.337-1.083 2.679c-0.184 1.37-0.186 3.176-0.186 5.719s0.002 4.349 0.186 5.719c0.18 1.341 0.519 2.114 1.083 2.679s1.337 0.903 2.679 1.083c1.37 0.184 3.176 0.186 5.719 0.186h5.333c2.542 0 4.349-0.002 5.719-0.186 1.341-0.18 2.114-0.519 2.679-1.083s0.903-1.337 1.083-2.679c0.184-1.37 0.186-3.177 0.186-5.719s-0.002-4.349-0.186-5.719c-0.18-1.341-0.519-2.114-1.083-2.679s-1.337-0.902-2.679-1.083c-1.37-0.184-3.177-0.186-5.719-0.186h-5.333c-2.542 0-4.349 0.002-5.719 0.186zM7.232 10.026c0.354-0.424 0.984-0.482 1.408-0.128l2.879 2.399c1.244 1.037 2.108 1.754 2.837 2.223 0.706 0.454 1.184 0.606 1.645 0.606s0.939-0.152 1.645-0.606c0.729-0.469 1.593-1.186 2.837-2.223l2.879-2.399c0.424-0.354 1.055-0.296 1.408 0.128s0.296 1.055-0.128 1.408l-2.929 2.441c-1.182 0.985-2.14 1.783-2.985 2.327-0.881 0.566-1.738 0.924-2.726 0.924s-1.846-0.358-2.726-0.924c-0.845-0.544-1.803-1.342-2.985-2.327l-2.929-2.441c-0.424-0.354-0.482-0.984-0.128-1.408z"></path>
</symbol>
<symbol id="icon-close-svgrepo-com" viewBox="0 0 32 32">
<path d="M27.661 4.438c-0.521-0.521-1.365-0.521-1.886 0l-9.726 9.726-9.726-9.726c-0.521-0.521-1.365-0.521-1.886 0s-0.521 1.365 0 1.886l9.726 9.726-9.726 9.726c-0.521 0.521-0.521 1.365 0 1.886s1.365 0.521 1.886 0l9.726-9.726 9.726 9.726c0.521 0.521 1.365 0.521 1.886 0s0.521-1.365 0-1.886l-9.726-9.726 9.726-9.726c0.521-0.521 0.521-1.365 0-1.886z"></path>
</symbol>
<symbol id="icon-facebook-boxed-svgrepo-com" viewBox="0 0 32 32">
<path d="M23.6 13.199l-0.515 3.76h-6.188v13.161h-3.76v-13.161h-5.64v-3.76h5.64v-3.446c0-4.781 2.937-7.872 7.485-7.872 1.948 0 3.162 0.103 3.864 0.197l-0.055 3.561-2.892 0.006c-0.079-0.008-1.963-0.154-3.322 1.094-0.876 0.803-1.32 1.957-1.32 3.427v3.033h6.703zM19.479 8.132c0.741-0.69 1.895-0.615 1.98-0.611l4.824-0.002 0.103-6.958-0.726-0.179c-0.466-0.115-1.893-0.382-5.039-0.382-5.601 0-9.365 3.92-9.365 9.752v1.566h-5.64v7.521h5.64v13.161h7.521v-13.161h5.945l1.032-7.521h-6.977v-1.153c0-0.916 0.237-1.6 0.701-2.034z"></path>
</symbol>
<symbol id="icon-instagram-167-svgrepo-com" viewBox="0 0 32 32">
<path d="M9.391 0.196c-2.605 0.118-4.862 0.754-6.685 2.57-1.829 1.825-2.458 4.091-2.576 6.668-0.073 1.609-0.501 13.763 0.74 16.95 0.837 2.15 2.487 3.804 4.657 4.644 1.013 0.394 2.168 0.661 3.864 0.738 14.177 0.642 19.433 0.292 21.649-5.382 0.393-1.010 0.664-2.165 0.739-3.856 0.648-14.214-0.105-17.295-2.576-19.763-1.96-1.955-4.265-3.286-19.812-2.57zM9.522 28.908c-1.552-0.070-2.394-0.329-2.956-0.546-1.414-0.549-2.476-1.607-3.022-3.013-0.946-2.422-0.632-13.925-0.548-15.786 0.083-1.823 0.452-3.489 1.739-4.775 1.592-1.588 3.649-2.366 17.654-1.734 1.828 0.083 3.498 0.451 4.787 1.734 1.592 1.588 2.382 3.661 1.739 17.612-0.070 1.548-0.33 2.389-0.548 2.949-1.441 3.692-4.756 4.205-18.845 3.559zM22.543 7.503c0 1.051 0.855 1.906 1.91 1.906s1.912-0.854 1.912-1.906c0-1.051-0.857-1.906-1.912-1.906s-1.91 0.854-1.91 1.906zM7.78 15.981c0 4.504 3.66 8.155 8.175 8.155s8.175-3.651 8.175-8.155c0-4.504-3.66-8.153-8.175-8.153s-8.175 3.649-8.175 8.153zM10.649 15.981c0-2.922 2.375-5.293 5.306-5.293s5.306 2.371 5.306 5.293c0 2.924-2.375 5.295-5.306 5.295s-5.306-2.371-5.306-5.295z"></path>
</symbol>
<symbol id="icon-tik-tok-svgrepo-com" viewBox="0 0 32 32">
<path d="M24.771 10.566c1.6 0.525 2.928 0.725 4.181 0.632 1.577-0.118 2.414-1.021 2.419-2.611 0.002-0.722-0.032-1.454-0.065-2.162-0.010-0.2-0.019-0.399-0.027-0.599 0.001-0.227-0.074-0.448-0.213-0.627s-0.333-0.308-0.553-0.364c-0.298-0.090-0.602-0.162-0.908-0.218-3.254-0.588-5.759-1.846-7.658-3.846-0.322-0.333-0.757-0.534-1.22-0.563h-0.014c-0.979 0.013-1.97 0.117-2.928 0.218l-0.487 0.050c-0.558 0.057-0.894 0.423-0.921 1.003-0.013 0.267-0.018 0.472-0.018 0.663 0.001 1.347 0.002 2.695 0.005 4.043 0.006 3.199 0.012 6.506-0.008 9.759-0.009 1.527-0.091 3.067-0.242 4.575-0.034 0.385-0.145 0.759-0.326 1.1s-0.43 0.642-0.731 0.885c-0.327 0.254-0.702 0.439-1.102 0.544s-0.818 0.129-1.227 0.070c-1.644-0.208-2.541-1.184-2.824-3.074-0.157-1.048 0.051-1.994 0.604-2.736 0.543-0.73 1.37-1.193 2.389-1.339 0.95-0.136 1.241-0.506 1.15-1.467-0.078-0.819-0.202-1.645-0.322-2.444-0.078-0.52-0.159-1.059-0.226-1.588-0.068-0.539-0.395-0.859-0.973-0.951-0.359-0.056-0.724-0.059-1.084-0.011-4.376 0.59-7.594 2.859-9.566 6.743-1.422 2.8-1.592 6.014-0.47 8.819 1.090 2.723 3.274 4.783 6.15 5.8 1.768 0.637 3.633 0.965 5.512 0.971 2.013 0 4.052-0.383 6.148-1.15 2.476-0.906 3.929-2.757 4.318-5.5 0.543-3.825 0.629-7.041 0.271-10.119-0.13-1.115-0.176-2.239-0.225-3.428-0.020-0.491-0.041-0.997-0.068-1.514 0.14 0.049 0.268 0.094 0.388 0.137 0.335 0.118 0.599 0.212 0.87 0.301zM21.339 11.58c0.024 2.239 0.049 4.555 0.020 6.831l-0.002 0.129c-0.026 2.058-0.053 4.186-0.448 6.254-0.362 1.893-1.339 3.085-2.988 3.643-3.488 1.18-6.695 1.188-9.804 0.024-4.338-1.625-5.645-5.625-5.017-8.869 0.825-4.257 3.227-6.969 7.141-8.060 0.41-0.114 0.896-0.248 1.391-0.373 0.118-0.027 0.238-0.046 0.359-0.059 0.049-0.007 0.102-0.014 0.162-0.022l0.174 3.149c-0.046 0.023-0.088 0.046-0.129 0.067-0.090 0.054-0.186 0.096-0.287 0.125-2.783 0.605-4.377 3.258-3.876 6.45 0.142 0.924 0.528 1.794 1.118 2.519s1.364 1.279 2.241 1.605c0.916 0.351 1.909 0.454 2.878 0.299s1.88-0.562 2.642-1.181c1.081-0.885 1.608-1.99 1.523-3.196-0.098-1.391-0.033-2.801 0.029-4.164 0.039-0.867 0.080-1.762 0.079-2.646-0.002-2.273-0.011-4.583-0.020-6.818-0.004-1.055-0.008-2.11-0.012-3.165-0.001-0.384-0.001-0.768 0-1.163v-0.477c0.503-0.19 0.996-0.157 1.474-0.125 0.179 0.012 0.364 0.024 0.545 0.024h0.003l0.144 0.143c1.897 1.883 2.3 2.282 8.394 4.29l-0.087 1.698c-0.038 0.019-0.073 0.038-0.106 0.057-0.052 0.033-0.108 0.057-0.168 0.072-1.808-0.135-3.892-0.368-5.75-1.427-0.263-0.135-0.541-0.24-0.827-0.313-0.158-0.047-0.321-0.096-0.499-0.157-0.019-0.006-0.038-0.009-0.058-0.006s-0.038 0.009-0.055 0.019-0.031 0.024-0.041 0.040c-0.011 0.016-0.017 0.035-0.020 0.054-0.023 0.176-0.048 0.33-0.071 0.47-0.046 0.236-0.073 0.476-0.079 0.717 0.003 1.181 0.016 2.381 0.029 3.542h0z"></path>
</symbol>
<symbol id="icon-burger-menu-right-svgrepo-com" viewBox="0 0 32 32">
<path d="M5.333 6.667c-0.736 0-1.333 0.597-1.333 1.333s0.597 1.333 1.333 1.333h21.333c0.736 0 1.333-0.597 1.333-1.333s-0.597-1.333-1.333-1.333h-21.333zM9.333 16c0-0.736 0.597-1.333 1.333-1.333h16c0.736 0 1.333 0.597 1.333 1.333s-0.597 1.333-1.333 1.333h-16c-0.736 0-1.333-0.597-1.333-1.333zM17.333 24c0-0.736 0.597-1.333 1.333-1.333h8c0.736 0 1.333 0.597 1.333 1.333s-0.597 1.333-1.333 1.333h-8c-0.736 0-1.333-0.597-1.333-1.333z"></path>
</symbol>
</defs>
</svg>
